<?xml version="1.0" encoding="UTF-8"?><svg id="Layer_1" xmlns="http://www.w3.org/2000/svg" viewBox="0 0 1080 1080"><rect x="-1.087" y="-1.523" width="1082.175" height="1082.175" fill="#0b1f3f"/><path d="M655.899,639.039c-.134,31.635,0,63.271-.067,94.906-11.897.235-23.827-.469-35.657-2.011-17.259-2.011-34.35-5.965-50.603-12.165-1.374-.503-2.714-1.039-4.055-1.575-1.374-.536-2.748-1.106-4.089-1.676-1.642-.67-3.284-1.34-4.893-2.011-29.323-13.237-55.429-33.78-74.933-59.417-15.751-20.208-26.944-43.8-33.411-68.565-2.882-12.701-4.993-25.603-5.496-38.606-.503-5.295-.637-10.657-.134-15.952.469-13.606,2.848-27.111,6.267-40.281,4.759-15.315,10.489-30.395,18.398-44.403-45.677-.067-91.354.033-137.03-.067.034-33.747-.067-67.46.034-101.206h325.635c.034,28.921-.034,57.842.034,86.729-12.165-.335-24.397.704-36.159,3.854-15.684,4.289-30.429,11.93-42.795,22.486-24.095,20.174-38.639,51.776-36.696,83.311.503,7.641,2.011,15.215,4.189,22.554,9.417,29.993,33.177,54.926,62.567,65.985,15.483,6.2,32.306,8.478,48.894,8.11Z" fill="#fff"/><path d="M655.971,545.819c13.949-.892,27.947-.217,41.912-.41,17.276,0,34.551-.024,51.835-.008.169,31.225.088,62.458-.016,93.683-31.265-.112-62.538-.08-93.803-.032.088-31.08-.056-62.153.072-93.233Z" fill="#e6e84a"/></svg>