<?xml version="1.0" encoding="UTF-8"?><svg id="Layer_1" xmlns="http://www.w3.org/2000/svg" viewBox="0 0 1080 1080"><rect x="272.319" y="272.319" width="535.362" height="535.362" rx="56.982" ry="56.982"/><path d="M634.945,621.133c-.11,25.916,0,51.831-.055,77.747-9.746.192-19.519-.384-29.21-1.647-14.138-1.647-28.139-4.887-41.454-9.965-1.126-.412-2.224-.851-3.322-1.29-1.126-.439-2.251-.906-3.349-1.373-1.345-.549-2.69-1.098-4.008-1.647-24.021-10.844-45.407-27.673-61.385-48.674-12.903-16.554-22.072-35.881-27.371-56.169-2.361-10.405-4.09-20.974-4.502-31.626-.412-4.338-.522-8.73-.11-13.068.384-11.146,2.333-22.209,5.134-32.998,3.898-12.546,8.593-24.9,15.072-36.375-37.419-.055-74.837.027-112.256-.055.027-27.645-.055-55.263.027-82.908h266.762c.027,23.692-.027,47.384.027,71.049-9.965-.274-19.986.577-29.622,3.157-12.848,3.514-24.927,9.773-35.058,18.421-19.739,16.527-31.653,42.415-30.061,68.248.412,6.259,1.647,12.464,3.432,18.476,7.714,24.571,27.179,44.996,51.255,54.055,12.683,5.079,26.465,6.946,40.054,6.644Z" fill="#fff"/><path d="M635.004,544.767c11.427-.731,22.894-.178,34.334-.336,14.152,0,28.305-.02,42.464-.007.138,25.58.072,51.166-.013,76.745-25.612-.092-51.232-.066-76.844-.026.072-25.461-.046-50.916.059-76.377Z" fill="#fff"/></svg>