<?xml version="1.0" encoding="UTF-8"?><svg id="Layer_1" xmlns="http://www.w3.org/2000/svg" viewBox="0 0 1080 1080"><path d="M605.391,489.923c-.076,17.849,0,35.698-.038,53.546-6.712.132-13.443-.265-20.118-1.134-9.737-1.135-19.38-3.366-28.551-6.863-.775-.284-1.532-.586-2.288-.889-.775-.302-1.55-.624-2.307-.945-.926-.378-1.853-.756-2.761-1.134-16.544-7.469-31.273-19.059-42.277-33.523-8.887-11.401-15.202-24.712-18.851-38.685-1.626-7.166-2.817-14.445-3.101-21.782-.284-2.987-.359-6.013-.076-9,.265-7.676,1.607-15.296,3.536-22.727,2.685-8.641,5.918-17.149,10.38-25.053-25.771-.038-51.542.019-77.313-.038.019-19.04-.038-38.061.019-57.101h183.725c.019,16.317-.019,32.635.019,48.933-6.863-.189-13.765.397-20.401,2.174-8.849,2.42-17.168,6.731-24.145,12.687-13.595,11.382-21.801,29.212-20.704,47.004.284,4.311,1.135,8.584,2.363,12.725,5.313,16.922,18.719,30.99,35.301,37.229,8.735,3.498,18.227,4.784,27.586,4.576Z"/><path d="M605.432,437.327c7.87-.503,15.768-.122,23.647-.231,9.747,0,19.494-.014,29.246-.005.095,17.617.05,35.239-.009,52.856-17.64-.063-35.284-.045-52.924-.018.05-17.536-.032-35.067.041-52.602Z" fill="#e6e84a"/><path d="M311.647,755.405c-6.32,0-12.162-1.027-17.528-3.082-5.366-2.055-10.009-4.927-13.929-8.621-3.922-3.691-6.986-8.068-9.193-13.131-2.207-5.062-3.31-10.637-3.31-16.727s1.103-11.664,3.31-16.728c2.207-5.062,5.271-9.437,9.193-13.131,3.92-3.691,8.562-6.565,13.929-8.621,5.366-2.055,11.208-3.082,17.528-3.082,7.382,0,13.986,1.294,19.809,3.882,5.824,2.589,10.676,6.319,14.557,11.19l-14.386,13.016c-2.511-3.044-5.328-5.366-8.449-6.964-3.121-1.598-6.586-2.398-10.389-2.398-4.416,0-8.278.952-11.591,2.854-3.31,1.904-5.919,4.568-7.821,7.993-1.904,3.426-2.855,7.422-2.855,11.99s.951,8.562,2.855,11.988c1.902,3.425,4.511,6.091,7.821,7.993,3.312,1.903,7.175,2.854,11.591,2.854,3.803,0,7.268-.798,10.389-2.398,3.121-1.598,5.937-3.92,8.449-6.964l14.386,13.017c-3.881,4.872-8.733,8.603-14.557,11.189-5.824,2.588-12.428,3.882-19.809,3.882Z"/><path d="M392.256,755.405c-6.395,0-12.293-1.027-17.699-3.082-5.405-2.055-10.105-4.948-14.102-8.677-3.994-3.728-7.097-8.125-9.304-13.189-2.209-5.06-3.312-10.598-3.312-16.612s1.103-11.551,3.312-16.613c2.207-5.062,5.31-9.458,9.304-13.189,3.997-3.728,8.697-6.622,14.102-8.677,5.405-2.055,11.304-3.082,17.699-3.082s12.291,1.027,17.699,3.082c5.403,2.055,10.105,4.949,14.099,8.677,3.997,3.731,7.097,8.127,9.307,13.189,2.207,5.063,3.312,10.601,3.312,16.613s-1.106,11.552-3.312,16.612c-2.209,5.064-5.31,9.46-9.307,13.189-3.994,3.73-8.697,6.622-14.099,8.677-5.408,2.055-11.304,3.082-17.699,3.082ZM392.256,736.68c4.033,0,7.687-.93,10.96-2.797,3.274-1.864,5.862-4.51,7.764-7.936,1.904-3.425,2.855-7.459,2.855-12.102s-.951-8.679-2.855-12.103c-1.902-3.426-4.491-6.069-7.764-7.936-3.274-1.864-6.927-2.797-10.96-2.797s-7.689.933-10.96,2.797c-3.276,1.867-5.862,4.51-7.767,7.936-1.902,3.425-2.852,7.461-2.852,12.103s.951,8.677,2.852,12.102c1.904,3.426,4.491,6.072,7.767,7.936,3.271,1.867,6.924,2.797,10.96,2.797Z"/><path d="M581.33,753.807v-79.926h62.684v17.47h-40.306v13.473h35.511v16.899h-35.511v14.615h41.792v17.47h-64.169Z"/><path d="M697.908,755.405c-6.32,0-12.162-1.027-17.528-3.082-5.366-2.055-10.009-4.927-13.929-8.621-3.922-3.691-6.986-8.068-9.193-13.131-2.207-5.062-3.31-10.637-3.31-16.727s1.103-11.664,3.31-16.728c2.207-5.062,5.271-9.437,9.193-13.131,3.92-3.691,8.562-6.565,13.929-8.621,5.366-2.055,11.208-3.082,17.528-3.082,7.382,0,13.986,1.294,19.809,3.882,5.824,2.589,10.676,6.319,14.557,11.19l-14.386,13.016c-2.511-3.044-5.328-5.366-8.449-6.964-3.121-1.598-6.586-2.398-10.389-2.398-4.416,0-8.278.952-11.591,2.854-3.31,1.904-5.919,4.568-7.821,7.993-1.904,3.426-2.855,7.422-2.855,11.99s.951,8.562,2.855,11.988c1.902,3.425,4.511,6.091,7.821,7.993,3.312,1.903,7.175,2.854,11.591,2.854,3.803,0,7.268-.798,10.389-2.398,3.121-1.598,5.937-3.92,8.449-6.964l14.386,13.017c-3.881,4.872-8.733,8.603-14.557,11.189-5.824,2.588-12.428,3.882-19.809,3.882Z"/><path d="M765.271,753.807v-61.999h-24.548v-17.927h71.59v17.927h-24.434v61.999h-22.608Z"/><polygon points="567.476 675.504 567.476 755.405 548.876 755.405 491.702 686.113 491.411 685.769 482.945 675.504 510.037 675.504 545.305 718.074 545.305 675.504 567.476 675.504" fill="#e6e84a"/><polygon points="535.984 755.405 508.759 755.405 473.465 712.835 473.465 755.405 451.32 755.405 451.32 675.504 469.92 675.504 497.885 709.237 527.226 744.796 527.359 744.955 535.984 755.405" fill="#e6e84a"/><rect x="624.117" y="574.294" width="83.086" height="17.462"/><rect x="624.117" y="636.786" width="83.247" height="17.435"/><path d="M397.184,654.221v-61.999h-24.548v-17.927h71.59v17.927h-24.434v61.999h-22.608Z"/><path d="M449.307,652.964v-79.926h35.738c11.72,0,20.703,2.646,26.946,7.936,6.24,5.291,9.363,12.503,9.363,21.637,0,5.862-1.369,10.943-4.111,15.243-2.741,4.302-6.622,7.632-11.647,9.991l17.357,25.119h-24.207l-14.502-21.237h-12.33v21.237h-22.608ZM471.914,614.258h12.559c4.718,0,8.24-1.028,10.562-3.084,2.32-2.054,3.48-4.909,3.48-8.562,0-3.73-1.16-6.623-3.48-8.677-2.323-2.055-5.844-3.084-10.562-3.084h-12.559v23.407Z"/><path d="M570.68,654.562c-11.8,0-21.011-3.214-27.633-9.648-6.622-6.432-9.932-15.623-9.932-27.575v-44.302h22.608v43.617c0,6.851,1.349,11.76,4.051,14.729s6.413,4.453,11.133,4.453,8.41-1.484,11.076-4.453c2.664-2.969,3.994-7.878,3.994-14.729v-43.617h22.267v44.302c0,11.952-3.312,21.143-9.934,27.575-6.622,6.433-15.833,9.648-27.63,9.648Z"/><polygon points="656.305 622.129 707.364 622.129 707.364 605.222 624.117 605.222 624.117 622.155 656.305 622.155 656.305 622.129"/></svg>