<?xml version="1.0" encoding="UTF-8"?><svg id="Layer_1" xmlns="http://www.w3.org/2000/svg" viewBox="0 0 1080 1080"><path d="M337.304,585.631c-.062,14.576,0,29.151-.031,43.727-5.481.108-10.978-.216-16.428-.926-7.952-.926-15.826-2.748-23.315-5.605-.633-.232-1.251-.479-1.868-.726-.633-.247-1.266-.51-1.884-.772-.757-.309-1.513-.618-2.254-.926-13.51-6.099-25.538-15.564-34.524-27.376-7.257-9.31-12.414-20.18-15.394-31.591-1.328-5.852-2.301-11.796-2.532-17.787-.232-2.44-.293-4.91-.062-7.35.216-6.269,1.312-12.491,2.887-18.559,2.192-7.056,4.833-14.004,8.477-20.458-21.045-.031-42.09.015-63.135-.031.015-15.548-.031-31.081.015-46.63h150.033c.015,13.325-.015,26.65.015,39.959-5.605-.154-11.241.324-16.66,1.776-7.226,1.976-14.02,5.497-19.717,10.36-11.102,9.295-17.803,23.855-16.907,38.384.232,3.52.926,7.01,1.93,10.391,4.339,13.819,15.286,25.307,28.827,30.402,7.133,2.856,14.884,3.906,22.527,3.737Z"/><path d="M337.337,542.681c6.427-.411,12.876-.1,19.31-.189,7.96,0,15.919-.011,23.883-.004.078,14.387.041,28.777-.007,43.163-14.405-.052-28.814-.037-43.219-.015.041-14.32-.026-28.636.033-42.956Z" fill="#e6e84a"/><path d="M483.915,614.462c-5.161,0-9.931-.839-14.314-2.517-4.382-1.678-8.174-4.024-11.375-7.04-3.203-3.014-5.705-6.588-7.507-10.723-1.802-4.133-2.703-8.686-2.703-13.66s.901-9.525,2.703-13.661c1.802-4.133,4.304-7.706,7.507-10.723,3.201-3.014,6.992-5.361,11.375-7.04,4.382-1.678,9.153-2.517,14.314-2.517,6.028,0,11.421,1.057,16.177,3.17,4.756,2.114,8.718,5.16,11.887,9.138l-11.748,10.629c-2.051-2.485-4.351-4.382-6.899-5.687-2.549-1.305-5.378-1.958-8.484-1.958-3.606,0-6.76.778-9.465,2.33-2.703,1.555-4.834,3.73-6.387,6.527-1.555,2.798-2.331,6.061-2.331,9.791s.776,6.992,2.331,9.79c1.553,2.797,3.684,4.974,6.387,6.527,2.705,1.554,5.859,2.33,9.465,2.33,3.106,0,5.935-.652,8.484-1.958,2.549-1.305,4.849-3.201,6.899-5.687l11.748,10.63c-3.169,3.978-7.131,7.025-11.887,9.137-4.756,2.113-10.149,3.17-16.177,3.17Z"/><path d="M549.742,614.462c-5.222,0-10.039-.839-14.453-2.517-4.414-1.678-8.252-4.04-11.516-7.086-3.262-3.045-5.796-6.635-7.598-10.77-1.804-4.132-2.705-8.655-2.705-13.566s.901-9.432,2.705-13.567c1.802-4.133,4.336-7.723,7.598-10.77,3.264-3.045,7.102-5.408,11.516-7.086,4.414-1.678,9.231-2.517,14.453-2.517s10.037.839,14.453,2.517c4.412,1.678,8.252,4.042,11.514,7.086,3.264,3.047,5.796,6.637,7.6,10.77,1.802,4.134,2.705,8.657,2.705,13.567s-.903,9.433-2.705,13.566c-1.804,4.135-4.336,7.725-7.6,10.77-3.262,3.046-7.102,5.408-11.514,7.086-4.416,1.678-9.231,2.517-14.453,2.517ZM549.742,599.17c3.294,0,6.277-.76,8.95-2.284,2.673-1.522,4.787-3.683,6.34-6.481,1.555-2.797,2.331-6.091,2.331-9.883s-.776-7.087-2.331-9.884c-1.553-2.798-3.667-4.956-6.34-6.481-2.673-1.522-5.657-2.284-8.95-2.284s-6.279.762-8.95,2.284c-2.675,1.524-4.787,3.683-6.342,6.481-1.553,2.797-2.329,6.092-2.329,9.884s.776,7.086,2.329,9.883c1.555,2.798,3.667,4.958,6.342,6.481,2.671,1.524,5.655,2.284,8.95,2.284Z"/><path d="M704.142,613.157v-65.269h51.189v14.266h-32.915v11.002h28.999v13.8h-28.999v11.935h34.128v14.266h-52.402Z"/><path d="M799.341,614.462c-5.161,0-9.931-.839-14.314-2.517-4.382-1.678-8.174-4.024-11.375-7.04-3.203-3.014-5.705-6.588-7.507-10.723-1.802-4.133-2.703-8.686-2.703-13.66s.901-9.525,2.703-13.661c1.802-4.133,4.304-7.706,7.507-10.723,3.201-3.014,6.992-5.361,11.375-7.04,4.382-1.678,9.153-2.517,14.314-2.517,6.028,0,11.421,1.057,16.177,3.17,4.756,2.114,8.718,5.16,11.887,9.138l-11.748,10.629c-2.051-2.485-4.351-4.382-6.899-5.687-2.549-1.305-5.378-1.958-8.484-1.958-3.606,0-6.76.778-9.465,2.33-2.703,1.555-4.834,3.73-6.387,6.527-1.555,2.798-2.331,6.061-2.331,9.791s.776,6.992,2.331,9.79c1.553,2.797,3.684,4.974,6.387,6.527,2.705,1.554,5.859,2.33,9.465,2.33,3.106,0,5.935-.652,8.484-1.958,2.549-1.305,4.849-3.201,6.899-5.687l11.748,10.63c-3.169,3.978-7.131,7.025-11.887,9.137-4.756,2.113-10.149,3.17-16.177,3.17Z"/><path d="M854.351,613.157v-50.629h-20.046v-14.64h58.461v14.64h-19.953v50.629h-18.462Z"/><polygon points="692.829 549.213 692.829 614.462 677.64 614.462 630.95 557.877 630.713 557.596 623.799 549.213 645.923 549.213 674.723 583.977 674.723 549.213 692.829 549.213" fill="#e6e84a"/><polygon points="667.112 614.462 644.88 614.462 616.058 579.699 616.058 614.462 597.974 614.462 597.974 549.213 613.163 549.213 636 576.76 659.96 605.798 660.068 605.928 667.112 614.462" fill="#e6e84a"/><path d="M470.813,531.833v-50.629h-20.046v-14.64h58.461v14.64h-19.953v50.629h-18.462Z"/><path d="M513.377,530.807v-65.269h29.184c9.571,0,16.907,2.161,22.004,6.481,5.095,4.321,7.646,10.21,7.646,17.669,0,4.787-1.118,8.937-3.357,12.447-2.239,3.513-5.408,6.233-9.511,8.159l14.174,20.513h-19.768l-11.843-17.342h-10.068v17.342h-18.462ZM531.839,499.199h10.256c3.853,0,6.729-.84,8.625-2.518,1.895-1.677,2.842-4.009,2.842-6.992,0-3.046-.947-5.409-2.842-7.086-1.897-1.678-4.773-2.518-8.625-2.518h-10.256v19.115Z"/><path d="M612.493,532.112c-9.636,0-17.158-2.625-22.565-7.878-5.408-5.253-8.11-12.758-8.11-22.518v-36.178h18.462v35.618c0,5.594,1.101,9.603,3.308,12.028s5.237,3.636,9.092,3.636,6.868-1.212,9.045-3.636c2.175-2.424,3.262-6.433,3.262-12.028v-35.618h18.183v36.178c0,9.76-2.705,17.265-8.113,22.518-5.408,5.254-12.93,7.878-22.563,7.878Z"/><rect x="656.13" y="466.563" width="67.849" height="14.26"/><rect x="656.13" y="517.596" width="67.981" height="14.238"/><polygon points="682.415 505.626 724.111 505.626 724.111 491.82 656.13 491.82 656.13 505.648 682.415 505.648 682.415 505.626"/></svg>