<?xml version="1.0" encoding="utf-8"?>
<svg xmlns="http://www.w3.org/2000/svg" height="512pt" version="1.1" viewBox="0 0 512 512" width="512pt">
<path d="M 0.00 0.00 L 512.00 0.00 L 512.00 512.00 L 0.00 512.00 L 0.00 0.00 Z" fill="transparent" opacity="1.00" stroke="transparent" stroke-width="0.25"/>
<path d="M 168.15 189.41 C 174.70 186.77 180.95 183.37 187.71 181.26 C 190.32 183.05 189.43 186.34 189.55 189.04 C 189.57 196.38 189.52 203.73 189.51 211.08 C 189.64 212.58 188.58 213.93 187.55 214.90 C 181.14 217.47 174.78 220.23 168.81 223.70 C 171.59 225.27 174.45 226.69 177.32 228.08 C 180.29 228.59 179.57 231.61 179.24 233.74 C 195.42 242.17 211.39 251.01 227.61 259.34 C 227.74 259.78 227.99 260.65 228.12 261.09 L 227.28 261.37 C 211.00 252.33 194.44 243.79 178.05 234.96 C 173.69 237.38 169.81 233.40 165.97 231.81 C 163.61 230.69 161.46 229.07 158.96 228.32 C 155.53 228.56 152.64 232.54 149.13 230.86 C 143.80 228.23 138.73 225.11 133.42 222.47 C 131.43 220.92 127.67 220.67 127.84 217.51 C 130.74 218.91 133.57 220.47 136.35 222.10 C 140.36 224.34 144.52 226.30 148.59 228.42 C 149.70 229.19 150.89 228.44 151.97 228.06 C 152.05 217.66 151.89 207.26 151.70 196.87 C 156.80 193.72 162.87 192.33 168.15 189.41 Z" fill="#9eacb3" opacity="1.00" stroke="#9eacb3" stroke-width="0.25"/>
<path d="M 329.65 188.28 C 333.23 187.78 335.99 190.38 339.14 191.55 C 348.19 195.26 357.37 198.67 366.19 202.92 C 368.29 203.98 370.76 204.76 372.09 206.85 C 371.99 217.26 371.84 227.69 372.17 238.11 C 377.61 238.18 382.18 234.48 387.07 232.50 C 390.39 230.97 393.64 229.28 396.93 227.69 C 396.71 228.27 396.25 229.42 396.03 229.99 C 388.55 234.13 380.63 237.37 373.01 241.21 C 368.70 240.83 365.15 237.44 360.96 236.29 C 358.32 237.14 356.11 238.95 353.64 240.18 C 350.78 241.66 347.84 243.00 345.09 244.68 C 343.54 244.57 342.00 244.37 340.45 244.39 C 326.59 250.59 312.86 257.15 298.88 263.05 C 298.92 262.62 299.00 261.75 299.04 261.32 C 311.46 255.62 323.98 250.12 336.40 244.41 C 337.47 243.88 338.62 243.43 339.53 242.62 C 339.59 241.21 339.33 239.81 339.42 238.40 C 340.42 237.12 342.20 236.81 343.56 236.01 C 345.92 234.86 348.34 233.83 350.63 232.55 C 350.64 232.35 350.65 231.95 350.66 231.74 C 343.99 228.70 337.28 225.70 330.39 223.20 C 328.82 222.02 328.98 219.77 328.86 218.03 C 328.97 209.66 328.90 201.30 328.86 192.94 C 328.80 191.34 329.17 189.79 329.65 188.28 Z" fill="#9eacb3" opacity="1.00" stroke="#9eacb3" stroke-width="0.25"/>
<path d="M 150.21 198.12 C 150.59 197.81 151.33 197.18 151.70 196.87 C 151.89 207.26 152.05 217.66 151.97 228.06 C 150.89 228.44 149.70 229.19 148.59 228.42 C 144.52 226.30 140.36 224.34 136.35 222.10 C 139.59 217.71 145.63 217.09 149.70 213.77 C 150.22 212.25 149.96 210.62 150.05 209.05 C 145.90 210.15 142.29 212.57 138.26 213.97 C 138.45 213.51 138.84 212.60 139.03 212.14 C 142.64 210.66 145.98 208.57 149.75 207.50 C 150.06 204.38 150.03 201.24 150.21 198.12 Z" fill="#e0e0e0" opacity="1.00" stroke="#e0e0e0" stroke-width="0.25"/>
<path d="M 171.15 204.10 C 171.68 204.31 172.73 204.73 173.25 204.95 C 173.13 205.66 172.90 207.10 172.78 207.82 C 172.08 207.85 170.68 207.93 169.98 207.97 C 169.97 206.57 170.19 205.16 171.15 204.10 Z" fill="#e0e0e0" opacity="1.00" stroke="#e0e0e0" stroke-width="0.25"/>
<path d="M 372.29 205.01 C 374.98 208.41 372.89 212.99 374.23 216.84 C 381.29 219.94 388.42 222.90 395.22 226.54 C 394.81 226.77 393.99 227.24 393.58 227.47 C 389.48 225.62 385.64 222.12 380.89 222.55 C 378.35 222.89 376.23 221.26 374.04 220.26 C 374.23 221.52 373.46 223.55 375.06 224.14 C 379.27 226.10 383.66 227.70 387.60 230.21 C 387.20 230.71 386.40 231.71 386.00 232.21 L 387.07 232.50 C 382.18 234.48 377.61 238.18 372.17 238.11 C 371.84 227.69 371.99 217.26 372.09 206.85 C 372.14 206.39 372.24 205.47 372.29 205.01 Z" fill="#e0e0e0" opacity="1.00" stroke="#e0e0e0" stroke-width="0.25"/>
<path d="M 138.26 213.97 C 142.29 212.57 145.90 210.15 150.05 209.05 C 149.96 210.62 150.22 212.25 149.70 213.77 C 145.63 217.09 139.59 217.71 136.35 222.10 C 133.57 220.47 130.74 218.91 127.84 217.51 C 131.15 215.02 135.05 213.24 139.03 212.14 C 138.84 212.60 138.45 213.51 138.26 213.97 Z" fill="#eaebeb" opacity="1.00" stroke="#eaebeb" stroke-width="0.25"/>
<path d="M 168.81 223.70 C 174.78 220.23 181.14 217.47 187.55 214.90 C 191.88 215.16 192.68 221.36 188.82 222.90 C 184.94 224.48 180.92 225.86 177.32 228.08 C 174.45 226.69 171.59 225.27 168.81 223.70 Z" fill="#eaebeb" opacity="1.00" stroke="#eaebeb" stroke-width="0.25"/>
<path d="M 374.04 220.26 C 376.23 221.26 378.35 222.89 380.89 222.55 C 385.64 222.12 389.48 225.62 393.58 227.47 C 393.99 227.24 394.81 226.77 395.22 226.54 L 395.75 226.24 C 396.05 226.61 396.64 227.33 396.93 227.69 C 393.64 229.28 390.39 230.97 387.07 232.50 L 386.00 232.21 C 386.40 231.71 387.20 230.71 387.60 230.21 C 383.66 227.70 379.27 226.10 375.06 224.14 C 373.46 223.55 374.23 221.52 374.04 220.26 Z" fill="#eaebeb" opacity="1.00" stroke="#eaebeb" stroke-width="0.25"/>
<path d="M 131.22 223.25 C 131.77 223.05 132.87 222.66 133.42 222.47 C 138.73 225.11 143.80 228.23 149.13 230.86 C 152.64 232.54 155.53 228.56 158.96 228.32 C 161.46 229.07 163.61 230.69 165.97 231.81 C 159.83 233.39 153.43 237.75 147.02 234.95 C 142.15 232.05 136.52 230.47 132.18 226.71 C 131.66 225.61 131.50 224.41 131.22 223.25 Z" fill="#eaebeb" opacity="1.00" stroke="#eaebeb" stroke-width="0.25"/>
<path d="M 325.60 224.91 C 326.85 223.62 328.61 223.04 330.39 223.20 C 337.28 225.70 343.99 228.70 350.66 231.74 C 350.65 231.95 350.64 232.35 350.63 232.55 C 348.34 233.83 345.92 234.86 343.56 236.01 C 338.49 233.53 333.31 231.26 328.23 228.79 C 326.72 228.05 326.16 226.35 325.60 224.91 Z" fill="#eaebeb" opacity="1.00" stroke="#eaebeb" stroke-width="0.25"/>
<path d="M 226.86 225.88 C 228.80 223.33 232.08 223.50 234.96 223.75 C 254.66 226.03 274.36 228.22 294.10 230.13 C 295.91 230.19 297.35 231.41 298.87 232.24 C 300.78 238.65 299.60 245.42 299.32 251.97 C 299.11 255.09 300.10 258.28 299.04 261.32 C 299.00 261.75 298.92 262.62 298.88 263.05 C 299.94 269.16 299.09 275.39 299.46 281.54 C 300.69 283.32 303.25 284.15 303.49 286.58 C 304.67 290.06 302.15 293.53 299.27 295.27 C 295.65 298.11 291.27 299.86 286.70 300.40 C 282.76 298.26 278.72 296.30 274.92 293.92 C 275.19 290.81 275.58 287.68 276.69 284.74 C 277.83 284.62 278.98 284.50 280.13 284.38 C 279.71 284.30 278.85 284.15 278.42 284.07 C 276.88 283.63 275.34 283.04 273.71 283.23 C 263.44 282.45 253.20 281.16 243.01 279.64 C 238.39 278.90 233.59 279.15 229.11 277.65 C 229.21 277.84 229.41 278.20 229.52 278.38 C 228.16 278.74 227.35 278.28 227.08 277.01 C 226.30 272.48 226.99 267.84 226.67 263.27 C 226.26 263.03 225.42 262.54 225.01 262.30 C 225.58 262.07 226.71 261.61 227.28 261.37 L 228.12 261.09 C 227.99 260.65 227.74 259.78 227.61 259.34 C 227.21 257.93 226.86 256.48 226.84 255.01 C 226.72 245.30 226.76 235.59 226.86 225.88 Z" fill="#eaebeb" opacity="1.00" stroke="#eaebeb" stroke-width="0.25"/>
<path d="M 232.27 229.17 C 252.65 231.19 272.98 233.75 293.34 235.78 C 294.05 247.12 293.44 258.53 293.69 269.90 C 273.23 267.95 252.82 265.30 232.41 262.90 C 232.62 251.66 232.47 240.41 232.27 229.17 Z" fill="#3b444a" opacity="1.00" stroke="#3b444a" stroke-width="0.25"/>
<path d="M 373.01 241.21 C 380.63 237.37 388.55 234.13 396.03 229.99 C 397.32 231.99 398.18 235.24 395.66 236.69 C 390.90 238.92 385.92 240.68 381.28 243.19 C 378.56 244.37 375.72 246.22 372.63 245.52 C 368.68 244.62 364.51 244.22 360.97 242.11 C 358.74 240.73 356.00 241.14 353.64 240.18 C 356.11 238.95 358.32 237.14 360.96 236.29 C 365.15 237.44 368.70 240.83 373.01 241.21 Z" fill="#eaebeb" opacity="1.00" stroke="#eaebeb" stroke-width="0.25"/>
<path d="M 262.40 276.96 C 263.19 276.73 263.70 276.23 263.94 275.45 C 264.23 276.20 264.77 276.71 265.55 276.98 C 264.81 277.24 264.31 277.73 264.04 278.47 C 263.49 277.95 262.94 277.45 262.40 276.96 Z" fill="#3b444a" opacity="1.00" stroke="#3b444a" stroke-width="0.25"/>
<path d="M 129.97 290.86 C 141.14 286.30 152.03 281.11 163.03 276.17 C 164.50 275.15 166.05 276.01 167.47 276.60 C 167.91 286.85 167.09 297.14 167.97 307.36 C 156.73 313.64 144.55 318.06 132.90 323.52 C 131.22 324.20 129.53 324.84 127.83 325.49 C 132.55 328.48 137.72 330.68 142.53 333.53 C 144.51 334.53 146.66 336.23 148.98 335.22 C 154.97 333.19 160.53 330.09 166.37 327.68 C 168.64 326.69 170.86 325.58 173.08 324.48 C 177.62 322.18 182.37 320.32 186.87 317.94 C 186.48 316.36 184.79 316.14 183.60 315.49 C 180.66 314.28 177.88 312.73 174.94 311.52 L 175.40 311.00 C 178.85 309.17 182.59 307.94 186.05 306.12 C 188.48 304.58 191.57 305.23 193.95 306.52 C 205.84 301.60 217.46 296.06 229.25 290.89 C 236.13 287.72 243.07 284.67 249.99 281.58 C 243.59 279.11 236.25 279.90 229.52 278.38 C 229.41 278.20 229.21 277.84 229.11 277.65 C 233.59 279.15 238.39 278.90 243.01 279.64 C 253.20 281.16 263.44 282.45 273.71 283.23 C 273.54 283.47 273.19 283.96 273.01 284.21 C 267.38 283.22 261.71 282.29 256.00 282.03 C 254.59 285.35 253.61 288.81 252.63 292.27 C 252.08 288.49 254.64 285.31 254.73 281.62 C 246.87 284.66 239.31 288.41 231.56 291.73 C 219.19 297.30 206.67 302.54 194.49 308.50 C 194.46 309.11 194.40 310.34 194.37 310.96 C 191.65 312.43 188.59 313.30 186.04 315.05 C 186.02 316.57 187.65 317.46 187.91 318.95 C 186.48 320.58 184.79 321.97 182.75 322.77 C 172.42 327.40 162.13 332.13 151.88 336.92 C 149.83 337.78 147.45 338.99 145.31 337.64 C 138.76 334.20 132.23 330.72 125.77 327.11 C 124.44 326.60 123.21 325.68 123.60 324.05 C 123.59 314.69 123.56 305.32 123.60 295.96 C 124.25 292.91 127.55 292.05 129.97 290.86 Z" fill="#9eacb3" opacity="1.00" stroke="#9eacb3" stroke-width="0.25"/>
<path d="M 130.02 294.00 C 141.87 289.22 153.31 283.46 165.15 278.67 C 165.24 287.78 165.10 296.89 165.24 306.00 C 152.63 311.83 139.91 317.43 127.16 322.96 C 126.99 314.25 127.10 305.55 127.13 296.84 C 126.79 295.02 128.83 294.63 130.02 294.00 Z" fill="#3b444a" opacity="1.00" stroke="#3b444a" stroke-width="0.25"/>
<path d="M 229.52 278.38 C 236.25 279.90 243.59 279.11 249.99 281.58 C 243.07 284.67 236.13 287.72 229.25 290.89 C 228.70 290.59 227.60 290.00 227.05 289.71 C 225.52 285.93 225.92 280.86 229.52 278.38 Z" fill="#eaebeb" opacity="1.00" stroke="#eaebeb" stroke-width="0.25"/>
<path d="M 231.56 291.73 C 239.31 288.41 246.87 284.66 254.73 281.62 C 254.64 285.31 252.08 288.49 252.63 292.27 L 252.45 292.82 C 253.64 293.13 254.87 293.44 256.07 292.96 C 261.68 292.80 267.29 293.87 272.81 294.82 C 276.39 296.75 279.86 298.88 283.51 300.70 C 283.14 301.04 282.41 301.72 282.04 302.06 C 273.74 302.51 265.30 303.65 257.08 301.78 C 249.18 300.96 241.53 298.40 234.66 294.43 C 233.43 293.78 232.49 292.74 231.56 291.73 Z" fill="#eaebeb" opacity="1.00" stroke="#eaebeb" stroke-width="0.25"/>
<path d="M 256.00 282.03 C 261.71 282.29 267.38 283.22 273.01 284.21 C 273.19 283.96 273.54 283.47 273.71 283.23 C 275.34 283.04 276.88 283.63 278.42 284.07 C 277.73 284.19 276.35 284.43 275.66 284.55 C 275.51 287.63 274.75 290.67 273.31 293.41 C 267.68 294.77 261.74 291.12 256.07 292.96 C 254.87 293.44 253.64 293.13 252.45 292.82 L 252.63 292.27 C 253.61 288.81 254.59 285.35 256.00 282.03 Z" fill="#e0e0e0" opacity="1.00" stroke="#e0e0e0" stroke-width="0.25"/>
<path d="M 275.66 284.55 C 276.35 284.43 277.73 284.19 278.42 284.07 C 278.85 284.15 279.71 284.30 280.13 284.38 C 278.98 284.50 277.83 284.62 276.69 284.74 C 275.58 287.68 275.19 290.81 274.92 293.92 C 278.72 296.30 282.76 298.26 286.70 300.40 C 299.18 306.94 311.44 314.00 324.09 320.17 C 324.11 313.76 324.11 307.35 324.15 300.94 C 323.89 299.31 324.74 298.03 326.34 297.62 C 331.60 301.26 337.45 303.89 343.03 306.98 C 348.32 310.14 353.82 312.93 359.26 315.82 C 360.83 316.72 362.69 317.98 362.71 320.01 C 363.15 329.08 362.89 338.17 363.02 347.25 C 363.26 347.49 363.74 347.96 363.98 348.20 C 364.83 341.60 364.01 334.70 364.47 327.98 C 364.51 328.46 364.59 329.42 364.63 329.90 C 364.68 331.19 364.70 332.50 364.70 333.80 C 364.67 338.57 364.66 343.33 364.74 348.09 C 365.82 348.25 366.90 348.41 367.98 348.59 C 366.51 348.36 365.11 348.47 363.78 348.94 L 363.31 349.77 C 363.76 350.05 364.66 350.63 365.12 350.91 C 369.75 350.06 373.80 347.41 378.05 345.49 C 382.08 343.71 385.93 341.56 390.00 339.86 C 390.90 342.55 387.33 342.84 385.79 343.97 C 379.64 347.33 373.12 349.93 366.86 353.06 C 364.35 354.52 361.80 352.62 359.58 351.54 C 348.29 345.26 336.77 339.41 325.51 333.09 C 323.12 330.31 324.52 326.23 324.24 322.90 C 322.20 321.08 319.71 319.91 317.32 318.65 C 305.98 312.79 294.91 306.43 283.51 300.70 C 279.86 298.88 276.39 296.75 272.81 294.82 C 267.29 293.87 261.68 292.80 256.07 292.96 C 261.74 291.12 267.68 294.77 273.31 293.41 C 274.75 290.67 275.51 287.63 275.66 284.55 Z" fill="#9eacb3" opacity="1.00" stroke="#9eacb3" stroke-width="0.25"/>
<path d="M 326.06 297.02 C 330.19 297.24 333.31 300.39 337.01 301.91 C 346.10 305.91 354.63 311.00 363.36 315.69 C 366.38 318.50 363.85 323.21 365.43 326.50 C 372.93 330.77 381.13 333.81 388.43 338.46 C 387.25 338.79 386.03 338.66 384.99 338.03 C 380.96 336.07 376.91 334.15 373.01 331.94 C 371.22 330.84 369.08 331.69 367.14 331.76 C 366.30 331.13 365.46 330.51 364.63 329.90 C 364.59 329.42 364.51 328.46 364.47 327.98 C 364.01 334.70 364.83 341.60 363.98 348.20 C 363.74 347.96 363.26 347.49 363.02 347.25 C 362.89 338.17 363.15 329.08 362.71 320.01 C 362.69 317.98 360.83 316.72 359.26 315.82 C 353.82 312.93 348.32 310.14 343.03 306.98 C 337.45 303.89 331.60 301.26 326.34 297.62 L 326.06 297.02 Z" fill="#e0e0e0" opacity="1.00" stroke="#e0e0e0" stroke-width="0.25"/>
<path d="M 167.97 307.36 C 170.44 308.58 173.07 309.50 175.40 311.00 L 174.94 311.52 C 174.63 311.90 174.01 312.64 173.70 313.01 C 174.76 313.62 175.83 314.23 176.89 314.84 C 172.86 316.45 168.71 317.79 164.88 319.89 C 168.26 319.88 171.65 320.22 174.83 321.45 C 173.50 322.08 172.17 322.71 170.85 323.36 C 171.41 323.64 172.52 324.20 173.08 324.48 C 170.86 325.58 168.64 326.69 166.37 327.68 C 163.95 326.68 161.53 325.58 158.94 325.11 C 153.47 326.41 149.14 331.18 143.34 331.30 C 139.40 329.70 136.00 327.01 132.05 325.40 C 132.53 325.20 133.47 324.81 133.94 324.61 C 133.68 324.34 133.16 323.79 132.90 323.52 C 144.55 318.06 156.73 313.64 167.97 307.36 Z" fill="#e0e0e0" opacity="1.00" stroke="#e0e0e0" stroke-width="0.25"/>
<path d="M 173.70 313.01 C 174.01 312.64 174.63 311.90 174.94 311.52 C 177.88 312.73 180.66 314.28 183.60 315.49 C 184.79 316.14 186.48 316.36 186.87 317.94 C 182.37 320.32 177.62 322.18 173.08 324.48 C 172.52 324.20 171.41 323.64 170.85 323.36 C 172.17 322.71 173.50 322.08 174.83 321.45 C 171.65 320.22 168.26 319.88 164.88 319.89 C 168.71 317.79 172.86 316.45 176.89 314.84 C 175.83 314.23 174.76 313.62 173.70 313.01 Z" fill="#eaebeb" opacity="1.00" stroke="#eaebeb" stroke-width="0.25"/>
<path d="M 182.75 322.77 C 184.79 321.97 186.48 320.58 187.91 318.95 C 187.67 320.06 187.47 321.20 187.32 322.34 C 190.25 323.08 189.39 327.26 187.02 328.13 C 180.59 331.46 174.04 334.57 167.33 337.26 C 160.64 340.93 152.92 345.19 145.07 342.85 C 138.97 340.60 133.99 336.04 127.65 334.32 C 126.52 332.13 124.74 329.67 125.77 327.11 C 132.23 330.72 138.76 334.20 145.31 337.64 C 147.45 338.99 149.83 337.78 151.88 336.92 C 162.13 332.13 172.42 327.40 182.75 322.77 Z" fill="#eaebeb" opacity="1.00" stroke="#eaebeb" stroke-width="0.25"/>
<path d="M 161.74 324.78 C 164.22 322.58 167.56 320.99 170.94 321.09 C 169.45 324.21 164.99 325.68 161.74 324.78 Z" fill="#eaebeb" opacity="1.00" stroke="#eaebeb" stroke-width="0.25"/>
<path d="M 341.11 323.10 C 343.15 321.32 346.04 324.62 344.11 326.19 C 342.06 326.94 341.53 324.50 341.11 323.10 Z" fill="#e0e0e0" opacity="1.00" stroke="#e0e0e0" stroke-width="0.25"/>
<path d="M 127.83 325.49 C 129.53 324.84 131.22 324.20 132.90 323.52 C 133.16 323.79 133.68 324.34 133.94 324.61 C 133.47 324.81 132.53 325.20 132.05 325.40 C 136.00 327.01 139.40 329.70 143.34 331.30 C 149.14 331.18 153.47 326.41 158.94 325.11 C 161.53 325.58 163.95 326.68 166.37 327.68 C 160.53 330.09 154.97 333.19 148.98 335.22 C 146.66 336.23 144.51 334.53 142.53 333.53 C 137.72 330.68 132.55 328.48 127.83 325.49 Z" fill="#eaebeb" opacity="1.00" stroke="#eaebeb" stroke-width="0.25"/>
<path d="M 364.63 329.90 C 365.46 330.51 366.30 331.13 367.14 331.76 C 369.08 331.69 371.22 330.84 373.01 331.94 C 376.91 334.15 380.96 336.07 384.99 338.03 C 386.03 338.66 387.25 338.79 388.43 338.46 L 389.02 338.37 C 389.26 338.74 389.76 339.49 390.00 339.86 C 385.93 341.56 382.08 343.71 378.05 345.49 L 377.17 344.93 C 378.14 343.92 379.13 342.92 380.11 341.93 C 377.69 339.94 374.40 339.59 371.98 337.64 C 369.77 335.98 367.18 334.97 364.70 333.80 C 364.70 332.50 364.68 331.19 364.63 329.90 Z" fill="#eaebeb" opacity="1.00" stroke="#eaebeb" stroke-width="0.25"/>
<path d="M 325.51 333.09 C 336.77 339.41 348.29 345.26 359.58 351.54 C 361.80 352.62 364.35 354.52 366.86 353.06 C 373.12 349.93 379.64 347.33 385.79 343.97 C 386.60 345.86 388.59 348.64 386.27 350.27 C 380.18 354.16 373.31 356.62 366.85 359.83 C 359.88 362.25 353.69 357.16 347.77 354.29 C 339.01 350.16 330.40 345.73 321.83 341.22 C 320.58 339.91 319.81 337.95 320.23 336.15 C 321.28 334.20 323.63 333.82 325.51 333.09 Z" fill="#eaebeb" opacity="1.00" stroke="#eaebeb" stroke-width="0.25"/>
<path d="M 364.70 333.80 C 367.18 334.97 369.77 335.98 371.98 337.64 C 374.40 339.59 377.69 339.94 380.11 341.93 C 379.13 342.92 378.14 343.92 377.17 344.93 L 378.05 345.49 C 373.80 347.41 369.75 350.06 365.12 350.91 C 364.66 350.63 363.76 350.05 363.31 349.77 L 363.78 348.94 C 365.11 348.47 366.51 348.36 367.98 348.59 C 366.90 348.41 365.82 348.25 364.74 348.09 C 364.66 343.33 364.67 338.57 364.70 333.80 Z" fill="#e0e0e0" opacity="1.00" stroke="#e0e0e0" stroke-width="0.25"/>
</svg>