<?xml version="1.0" encoding="utf-8"?>
<svg xmlns="http://www.w3.org/2000/svg" height="512pt" version="1.1" viewBox="0 0 512 512" width="512pt">
<path d="M 0.00 0.00 L 512.00 0.00 L 512.00 512.00 L 0.00 512.00 L 0.00 0.00 M 353.10 141.23 C 342.36 147.59 331.00 152.82 320.24 159.12 C 318.37 160.03 318.99 162.30 318.81 163.97 C 318.98 179.34 318.63 194.72 318.82 210.08 C 318.68 212.12 320.94 212.74 322.32 213.60 C 328.03 216.27 333.20 219.92 338.82 222.76 C 350.62 216.15 362.90 210.40 374.62 203.68 C 375.51 188.14 374.59 172.50 375.03 156.92 C 375.09 154.42 374.91 151.91 374.67 149.42 C 369.81 146.92 364.88 144.54 360.11 141.88 C 358.06 140.48 355.29 139.58 353.10 141.23 M 272.02 189.05 C 267.26 192.55 260.84 193.38 256.55 197.53 C 255.92 201.01 255.62 204.77 256.77 208.18 C 262.92 211.05 268.41 215.74 275.00 217.38 C 282.09 214.74 288.77 211.02 295.46 207.53 C 296.16 204.61 295.72 201.53 296.01 198.56 C 295.89 197.32 296.44 195.57 295.08 194.83 C 291.00 192.22 286.77 189.81 282.43 187.65 C 279.06 185.75 274.95 186.88 272.02 189.05 M 398.63 196.66 C 391.27 199.92 384.26 203.88 377.06 207.46 C 376.62 217.28 376.98 227.12 376.74 236.95 C 376.84 238.80 376.50 240.84 377.40 242.56 C 382.52 245.55 387.71 248.46 392.95 251.26 C 394.45 252.20 396.06 251.04 397.44 250.44 C 404.85 246.42 412.57 242.97 419.89 238.79 C 422.33 237.49 421.13 234.17 421.44 231.94 C 421.21 221.48 421.66 211.02 421.20 200.57 C 420.79 200.71 419.97 200.98 419.56 201.12 C 415.80 197.79 411.02 195.93 406.74 193.39 C 403.78 193.11 401.29 195.60 398.63 196.66 M 234.58 205.29 C 234.78 209.36 233.68 213.83 235.36 217.63 C 240.55 221.19 246.24 224.12 251.87 226.94 C 248.51 228.91 245.19 230.99 241.54 232.38 C 218.26 242.19 192.57 242.27 167.93 245.85 C 166.62 245.91 166.05 246.66 166.21 248.09 L 165.47 248.24 C 164.05 250.64 167.66 250.00 169.05 250.07 C 191.41 246.84 214.44 246.61 235.91 238.86 C 237.08 238.25 239.08 237.84 238.63 235.99 C 243.74 234.37 248.10 231.00 253.15 229.41 C 253.19 228.79 253.27 227.54 253.31 226.91 C 253.65 227.75 253.99 228.59 254.34 229.42 C 262.47 230.79 268.40 237.76 276.37 239.83 C 277.92 236.78 277.50 233.27 277.32 229.99 C 277.42 227.96 275.47 226.89 273.99 225.99 C 264.80 220.87 255.39 216.16 246.32 210.82 C 242.40 208.98 238.98 205.92 234.58 205.29 M 351.23 222.31 C 348.98 228.38 344.93 233.39 341.18 238.53 C 339.44 239.79 338.16 241.55 336.90 243.27 C 333.06 246.67 330.60 251.54 326.08 254.20 C 319.51 258.12 312.68 261.57 306.08 265.42 C 300.08 265.55 294.07 264.91 288.09 265.37 C 286.38 267.40 287.59 270.70 287.57 273.21 C 289.96 274.11 292.29 275.20 294.50 276.49 C 294.54 278.43 294.40 280.42 294.85 282.33 C 295.84 284.55 298.45 285.81 300.82 285.36 C 304.02 284.54 306.48 281.81 309.81 281.41 C 312.87 283.71 316.00 285.91 319.41 287.66 C 329.78 294.89 341.86 299.30 351.84 307.13 C 355.94 310.41 359.86 315.39 358.39 320.99 C 356.39 327.75 349.89 331.55 343.77 334.08 C 343.74 334.65 343.67 335.80 343.63 336.38 C 347.63 335.82 351.18 333.64 354.41 331.34 C 359.52 327.40 362.98 320.24 360.46 313.89 C 357.78 306.45 350.82 301.73 344.33 297.81 C 336.50 293.80 328.98 289.22 321.49 284.61 C 319.02 283.06 316.44 281.62 314.26 279.67 C 314.30 279.43 314.39 278.96 314.43 278.72 C 317.15 277.33 319.96 276.08 322.42 274.24 C 322.05 272.05 323.08 269.18 321.05 267.61 C 318.81 267.20 316.53 267.10 314.27 266.91 C 319.81 264.08 325.72 261.60 330.47 257.49 C 333.74 253.90 336.88 250.15 339.80 246.27 C 342.51 243.95 343.96 240.62 346.23 237.93 C 350.31 233.73 352.87 228.01 353.86 222.27 C 353.20 222.28 351.89 222.30 351.23 222.31 M 135.26 256.25 C 129.55 259.55 123.79 263.85 121.58 270.35 C 119.45 276.36 122.05 283.07 126.49 287.32 C 134.77 295.26 145.79 299.21 155.22 305.48 C 155.62 305.05 156.42 304.19 156.82 303.76 C 149.04 298.48 140.18 294.99 132.61 289.39 C 128.32 286.06 123.71 281.83 123.27 276.06 C 122.47 269.65 127.36 264.38 132.22 260.97 C 139.86 255.70 148.73 252.28 157.78 250.33 C 157.80 249.75 157.83 248.59 157.85 248.01 C 149.97 249.62 142.34 252.44 135.26 256.25 M 197.98 268.65 C 187.47 273.63 181.48 285.70 182.07 297.10 C 176.50 297.18 171.00 299.93 167.73 304.47 L 167.43 304.66 C 166.56 306.01 165.65 307.34 164.89 308.75 C 160.78 309.59 156.96 311.51 152.74 311.78 C 147.74 312.24 142.31 315.60 137.59 312.52 C 127.57 307.39 115.64 306.51 104.89 309.76 C 94.96 312.42 86.49 319.18 80.56 327.45 C 77.57 332.21 75.53 337.52 73.87 342.87 C 72.68 347.83 73.01 353.01 73.16 358.07 C 74.33 367.89 78.85 377.13 85.46 384.44 C 91.39 390.53 99.24 394.38 107.33 396.66 C 119.68 399.59 133.34 397.06 143.66 389.61 C 149.73 386.12 153.69 380.14 157.35 374.37 C 161.85 365.72 163.07 355.62 161.97 346.01 C 161.46 342.32 159.70 338.79 160.07 334.99 C 160.60 332.04 161.89 328.90 164.74 327.51 C 165.84 330.15 167.50 332.68 170.22 333.87 C 174.82 336.14 179.36 338.54 183.66 341.36 C 193.11 346.91 202.80 352.05 212.00 358.00 C 217.96 361.06 224.72 358.13 229.96 354.92 C 236.88 350.98 244.35 348.14 251.21 344.08 C 262.35 338.56 273.54 333.16 284.66 327.61 C 287.41 326.27 288.35 323.21 288.97 320.45 C 292.77 314.25 288.60 304.27 280.82 304.52 L 280.22 304.19 C 278.30 296.65 271.13 292.09 263.79 290.98 C 262.17 278.38 246.98 268.65 234.96 273.49 C 233.36 273.65 231.77 273.96 230.16 273.94 C 227.89 273.12 226.62 270.69 224.40 269.77 C 216.66 264.55 206.09 263.90 197.98 268.65 M 277.99 332.24 C 278.10 332.85 278.32 334.06 278.43 334.67 C 281.11 336.05 284.52 336.99 287.48 336.24 C 293.12 338.27 299.17 338.53 305.06 339.40 C 308.72 339.68 312.58 340.81 316.07 339.09 C 315.26 338.15 314.26 337.65 313.08 337.61 C 306.10 337.42 299.19 336.32 292.33 335.14 C 287.58 334.09 282.94 332.07 277.99 332.24 M 323.56 337.61 C 323.47 338.14 323.30 339.21 323.21 339.75 C 327.67 339.74 332.11 339.36 336.48 338.43 C 336.50 337.87 336.54 336.75 336.56 336.19 C 332.20 336.46 327.87 336.99 323.56 337.61 Z" fill="transparent" opacity="1.00" stroke="transparent" stroke-width="0.25"/>
<path d="M 353.10 141.23 C 355.29 139.58 358.06 140.48 360.11 141.88 C 364.88 144.54 369.81 146.92 374.67 149.42 C 374.91 151.91 375.09 154.42 375.03 156.92 C 374.59 172.50 375.51 188.14 374.62 203.68 C 362.90 210.40 350.62 216.15 338.82 222.76 C 333.20 219.92 328.03 216.27 322.32 213.60 C 320.94 212.74 318.68 212.12 318.82 210.08 C 318.63 194.72 318.98 179.34 318.81 163.97 C 318.99 162.30 318.37 160.03 320.24 159.12 C 331.00 152.82 342.36 147.59 353.10 141.23 M 354.28 142.26 C 349.81 144.21 345.88 147.16 341.58 149.42 C 334.78 152.29 328.79 156.76 321.90 159.48 C 326.41 162.75 331.72 164.61 336.47 167.49 C 338.64 169.24 341.09 167.22 343.15 166.30 C 352.81 160.96 362.56 155.79 372.34 150.68 C 369.02 147.72 364.70 146.32 361.00 143.94 C 358.96 142.93 356.64 140.96 354.28 142.26 Z" fill="#cad3d8" opacity="1.00" stroke="#cad3d8" stroke-width="0.25"/>
<path d="M 354.28 142.26 C 356.64 140.96 358.96 142.93 361.00 143.94 C 364.70 146.32 369.02 147.72 372.34 150.68 C 362.56 155.79 352.81 160.96 343.15 166.30 C 341.09 167.22 338.64 169.24 336.47 167.49 C 331.72 164.61 326.41 162.75 321.90 159.48 C 328.79 156.76 334.78 152.29 341.58 149.42 C 345.88 147.16 349.81 144.21 354.28 142.26 Z" fill="#e9edf0" opacity="1.00" stroke="#e9edf0" stroke-width="0.25"/>
<path d="M 272.02 189.05 C 274.95 186.88 279.06 185.75 282.43 187.65 C 286.77 189.81 291.00 192.22 295.08 194.83 C 296.44 195.57 295.89 197.32 296.01 198.56 C 288.78 200.10 283.24 205.70 276.04 207.20 C 268.89 207.35 264.04 200.73 257.15 199.62 C 257.06 202.47 256.98 205.33 256.77 208.18 C 255.62 204.77 255.92 201.01 256.55 197.53 C 260.84 193.38 267.26 192.55 272.02 189.05 Z" fill="#e8edf0" opacity="1.00" stroke="#e8edf0" stroke-width="0.25"/>
<path d="M 398.63 196.66 C 401.29 195.60 403.78 193.11 406.74 193.39 C 411.02 195.93 415.80 197.79 419.56 201.12 C 414.46 203.81 409.56 206.87 404.32 209.31 C 400.55 211.00 397.19 213.72 393.15 214.71 C 387.48 213.01 382.93 208.73 377.06 207.46 C 384.26 203.88 391.27 199.92 398.63 196.66 Z" fill="#e8edf0" opacity="1.00" stroke="#e8edf0" stroke-width="0.25"/>
<path d="M 276.04 207.20 C 283.24 205.70 288.78 200.10 296.01 198.56 C 295.72 201.53 296.16 204.61 295.46 207.53 C 288.77 211.02 282.09 214.74 275.00 217.38 C 268.41 215.74 262.92 211.05 256.77 208.18 C 256.98 205.33 257.06 202.47 257.15 199.62 C 264.04 200.73 268.89 207.35 276.04 207.20 Z" fill="#c8d2d6" opacity="1.00" stroke="#c8d2d6" stroke-width="0.25"/>
<path d="M 419.56 201.12 C 419.97 200.98 420.79 200.71 421.20 200.57 C 421.66 211.02 421.21 221.48 421.44 231.94 C 421.13 234.17 422.33 237.49 419.89 238.79 C 412.57 242.97 404.85 246.42 397.44 250.44 C 396.06 251.04 394.45 252.20 392.95 251.26 C 387.71 248.46 382.52 245.55 377.40 242.56 C 376.50 240.84 376.84 238.80 376.74 236.95 C 376.98 227.12 376.62 217.28 377.06 207.46 C 382.93 208.73 387.48 213.01 393.15 214.71 C 397.19 213.72 400.55 211.00 404.32 209.31 C 409.56 206.87 414.46 203.81 419.56 201.12 M 380.31 212.07 C 380.30 212.67 380.29 213.88 380.28 214.49 C 383.58 216.03 386.58 218.27 390.16 219.20 C 388.84 215.00 383.58 214.36 380.31 212.07 Z" fill="#c9d3d7" opacity="1.00" stroke="#c9d3d7" stroke-width="0.25"/>
<path d="M 234.58 205.29 C 238.98 205.92 242.40 208.98 246.32 210.82 C 255.39 216.16 264.80 220.87 273.99 225.99 C 275.47 226.89 277.42 227.96 277.32 229.99 C 277.50 233.27 277.92 236.78 276.37 239.83 C 268.40 237.76 262.47 230.79 254.34 229.42 C 253.99 228.59 253.65 227.75 253.31 226.91 L 253.23 226.20 L 251.87 226.94 C 246.24 224.12 240.55 221.19 235.36 217.63 C 233.68 213.83 234.78 209.36 234.58 205.29 M 267.24 229.74 C 267.91 232.00 270.43 231.67 272.21 231.24 C 271.93 229.65 272.38 227.11 270.32 226.59 C 268.41 225.76 266.09 227.76 267.24 229.74 Z" fill="#c9d2d6" opacity="1.00" stroke="#c9d2d6" stroke-width="0.25"/>
<path d="M 380.31 212.07 C 383.58 214.36 388.84 215.00 390.16 219.20 C 386.58 218.27 383.58 216.03 380.28 214.49 C 380.29 213.88 380.30 212.67 380.31 212.07 Z" fill="#3e4d53" opacity="1.00" stroke="#3e4d53" stroke-width="0.25"/>
<path d="M 351.23 222.31 C 351.89 222.30 353.20 222.28 353.86 222.27 C 352.87 228.01 350.31 233.73 346.23 237.93 C 345.94 237.48 345.36 236.56 345.07 236.10 C 343.77 236.90 342.46 237.69 341.18 238.53 C 344.93 233.39 348.98 228.38 351.23 222.31 Z" fill="#bfddd3" opacity="1.00" stroke="#bfddd3" stroke-width="0.25"/>
<path d="M 267.24 229.74 C 266.09 227.76 268.41 225.76 270.32 226.59 C 272.38 227.11 271.93 229.65 272.21 231.24 C 270.43 231.67 267.91 232.00 267.24 229.74 Z" fill="#f6f8fd" opacity="1.00" stroke="#f6f8fd" stroke-width="0.25"/>
<path d="M 251.87 226.94 L 253.23 226.20 L 253.31 226.91 C 253.27 227.54 253.19 228.79 253.15 229.41 C 248.10 231.00 243.74 234.37 238.63 235.99 C 215.37 244.21 190.44 244.85 166.21 248.09 C 166.05 246.66 166.62 245.91 167.93 245.85 C 192.57 242.27 218.26 242.19 241.54 232.38 C 245.19 230.99 248.51 228.91 251.87 226.94 Z" fill="#3e4d53" opacity="1.00" stroke="#3e4d53" stroke-width="0.25"/>
<path d="M 341.18 238.53 C 342.46 237.69 343.77 236.90 345.07 236.10 C 345.36 236.56 345.94 237.48 346.23 237.93 C 343.96 240.62 342.51 243.95 339.80 246.27 C 339.77 245.52 339.71 244.03 339.68 243.29 C 338.99 243.28 337.60 243.27 336.90 243.27 C 338.16 241.55 339.44 239.79 341.18 238.53 Z" fill="#94d8be" opacity="1.00" stroke="#94d8be" stroke-width="0.25"/>
<path d="M 166.21 248.09 C 190.44 244.85 215.37 244.21 238.63 235.99 C 239.08 237.84 237.08 238.25 235.91 238.86 C 214.44 246.61 191.41 246.84 169.05 250.07 C 167.66 250.00 164.05 250.64 165.47 248.24 L 166.21 248.09 Z" fill="#e4ecf1" opacity="1.00" stroke="#e4ecf1" stroke-width="0.25"/>
<path d="M 326.08 254.20 C 330.60 251.54 333.06 246.67 336.90 243.27 C 337.60 243.27 338.99 243.28 339.68 243.29 C 339.71 244.03 339.77 245.52 339.80 246.27 C 336.88 250.15 333.74 253.90 330.47 257.49 C 325.72 261.60 319.81 264.08 314.27 266.91 C 316.53 267.10 318.81 267.20 321.05 267.61 C 323.08 269.18 322.05 272.05 322.42 274.24 C 319.96 276.08 317.15 277.33 314.43 278.72 C 314.39 278.96 314.30 279.43 314.26 279.67 C 316.44 281.62 319.02 283.06 321.49 284.61 C 320.97 285.37 319.93 286.90 319.41 287.66 C 316.00 285.91 312.87 283.71 309.81 281.41 C 306.48 281.81 304.02 284.54 300.82 285.36 C 298.45 285.81 295.84 284.55 294.85 282.33 C 294.40 280.42 294.54 278.43 294.50 276.49 C 292.29 275.20 289.96 274.11 287.57 273.21 C 287.59 270.70 286.38 267.40 288.09 265.37 C 294.07 264.91 300.08 265.55 306.08 265.42 C 312.68 261.57 319.51 258.12 326.08 254.20 Z" fill="#43c291" opacity="1.00" stroke="#43c291" stroke-width="0.25"/>
<path d="M 135.26 256.25 C 142.34 252.44 149.97 249.62 157.85 248.01 C 157.83 248.59 157.80 249.75 157.78 250.33 C 148.73 252.28 139.86 255.70 132.22 260.97 C 127.36 264.38 122.47 269.65 123.27 276.06 C 123.71 281.83 128.32 286.06 132.61 289.39 C 140.18 294.99 149.04 298.48 156.82 303.76 C 156.42 304.19 155.62 305.05 155.22 305.48 C 145.79 299.21 134.77 295.26 126.49 287.32 C 122.05 283.07 119.45 276.36 121.58 270.35 C 123.79 263.85 129.55 259.55 135.26 256.25 Z" fill="#3f4c52" opacity="1.00" stroke="#3f4c52" stroke-width="0.25"/>
<path d="M 197.98 268.65 C 206.09 263.90 216.66 264.55 224.40 269.77 C 219.96 268.56 215.65 266.55 210.97 266.57 C 206.55 266.40 202.20 267.41 197.98 268.65 Z" fill="#3f4c52" opacity="1.00" stroke="#3f4c52" stroke-width="0.25"/>
<path d="M 197.98 268.65 C 202.20 267.41 206.55 266.40 210.97 266.57 C 215.65 266.55 219.96 268.56 224.40 269.77 C 226.62 270.69 227.89 273.12 230.16 273.94 C 231.77 273.96 233.36 273.65 234.96 273.49 C 240.63 272.86 246.80 272.90 251.69 276.26 C 257.50 279.29 261.51 284.94 263.29 291.18 C 260.68 291.35 258.07 291.54 255.46 291.44 C 255.25 291.60 254.84 291.91 254.63 292.07 C 254.73 292.49 254.93 293.32 255.04 293.73 C 260.61 290.89 267.33 292.31 272.50 295.39 C 275.95 297.46 277.44 301.43 280.22 304.19 L 280.82 304.52 C 283.43 305.97 286.57 307.04 288.03 309.86 C 290.12 313.01 289.60 316.94 288.97 320.45 C 288.35 323.21 287.41 326.27 284.66 327.61 C 273.54 333.16 262.35 338.56 251.21 344.08 C 244.35 348.14 236.88 350.98 229.96 354.92 C 224.72 358.13 217.96 361.06 212.00 358.00 C 202.80 352.05 193.11 346.91 183.66 341.36 C 179.36 338.54 174.82 336.14 170.22 333.87 C 167.50 332.68 165.84 330.15 164.74 327.51 C 161.91 321.70 162.09 314.53 164.89 308.75 C 165.65 307.34 166.56 306.01 167.43 304.66 L 167.73 304.47 C 171.88 301.90 175.89 298.42 181.04 298.35 C 185.63 297.68 189.91 299.57 193.99 301.38 C 190.77 298.37 186.48 296.83 182.07 297.10 C 181.48 285.70 187.47 273.63 197.98 268.65 M 230.14 274.81 C 234.28 279.32 237.30 284.82 237.98 290.99 C 239.25 284.82 235.33 278.07 230.14 274.81 M 221.19 326.25 C 224.57 315.96 233.62 306.55 245.01 306.50 C 250.26 306.06 255.08 308.59 258.77 312.12 C 255.91 307.95 251.12 305.42 246.09 305.29 C 234.33 305.07 222.67 314.46 221.19 326.25 M 208.35 336.41 C 205.94 340.54 204.02 346.40 206.62 350.77 C 204.85 341.88 210.19 332.48 218.86 329.76 C 214.36 329.06 210.83 333.17 208.35 336.41 Z" fill="#dee3e7" opacity="1.00" stroke="#dee3e7" stroke-width="0.25"/>
<path d="M 234.96 273.49 C 246.98 268.65 262.17 278.38 263.79 290.98 C 271.13 292.09 278.30 296.65 280.22 304.19 C 277.44 301.43 275.95 297.46 272.50 295.39 C 267.33 292.31 260.61 290.89 255.04 293.73 C 254.93 293.32 254.73 292.49 254.63 292.07 C 254.84 291.91 255.25 291.60 255.46 291.44 C 258.07 291.54 260.68 291.35 263.29 291.18 C 261.51 284.94 257.50 279.29 251.69 276.26 C 246.80 272.90 240.63 272.86 234.96 273.49 Z" fill="#3e4d53" opacity="1.00" stroke="#3e4d53" stroke-width="0.25"/>
<path d="M 230.14 274.81 C 235.33 278.07 239.25 284.82 237.98 290.99 C 237.30 284.82 234.28 279.32 230.14 274.81 Z" fill="#3f4c52" opacity="1.00" stroke="#3f4c52" stroke-width="0.25"/>
<path d="M 321.49 284.61 C 328.98 289.22 336.50 293.80 344.33 297.81 C 350.82 301.73 357.78 306.45 360.46 313.89 C 362.98 320.24 359.52 327.40 354.41 331.34 C 351.18 333.64 347.63 335.82 343.63 336.38 C 343.67 335.80 343.74 334.65 343.77 334.08 C 349.89 331.55 356.39 327.75 358.39 320.99 C 359.86 315.39 355.94 310.41 351.84 307.13 C 341.86 299.30 329.78 294.89 319.41 287.66 C 319.93 286.90 320.97 285.37 321.49 284.61 Z" fill="#55b891" opacity="1.00" stroke="#55b891" stroke-width="0.25"/>
<path d="M 167.73 304.47 C 171.00 299.93 176.50 297.18 182.07 297.10 C 186.48 296.83 190.77 298.37 193.99 301.38 C 189.91 299.57 185.63 297.68 181.04 298.35 C 175.89 298.42 171.88 301.90 167.73 304.47 Z" fill="#3e4d53" opacity="1.00" stroke="#3e4d53" stroke-width="0.25"/>
<path d="M 280.82 304.52 C 288.60 304.27 292.77 314.25 288.97 320.45 C 289.60 316.94 290.12 313.01 288.03 309.86 C 286.57 307.04 283.43 305.97 280.82 304.52 Z" fill="#3f4c52" opacity="1.00" stroke="#3f4c52" stroke-width="0.25"/>
<path d="M 221.19 326.25 C 222.67 314.46 234.33 305.07 246.09 305.29 C 251.12 305.42 255.91 307.95 258.77 312.12 C 255.08 308.59 250.26 306.06 245.01 306.50 C 233.62 306.55 224.57 315.96 221.19 326.25 Z" fill="#3e4d53" opacity="1.00" stroke="#3e4d53" stroke-width="0.25"/>
<path d="M 104.89 309.76 C 115.64 306.51 127.57 307.39 137.59 312.52 C 142.31 315.60 147.74 312.24 152.74 311.78 C 156.96 311.51 160.78 309.59 164.89 308.75 C 162.09 314.53 161.91 321.70 164.74 327.51 C 161.89 328.90 160.60 332.04 160.07 334.99 C 159.70 338.79 161.46 342.32 161.97 346.01 C 163.07 355.62 161.85 365.72 157.35 374.37 C 153.69 380.14 149.73 386.12 143.66 389.61 C 133.34 397.06 119.68 399.59 107.33 396.66 C 99.24 394.38 91.39 390.53 85.46 384.44 C 78.85 377.13 74.33 367.89 73.16 358.07 C 73.01 353.01 72.68 347.83 73.87 342.87 C 75.53 337.52 77.57 332.21 80.56 327.45 C 86.49 319.18 94.96 312.42 104.89 309.76 M 112.45 323.48 C 106.05 324.59 99.98 327.72 95.76 332.71 C 89.67 339.49 87.05 349.06 88.26 358.03 C 89.61 364.02 93.08 369.30 96.97 373.95 C 107.05 384.14 124.90 384.91 136.03 376.01 C 141.91 371.79 145.52 364.93 146.90 357.93 C 147.74 349.28 146.01 339.63 139.69 333.25 C 133.27 325.40 122.37 321.69 112.45 323.48 Z" fill="#e9edf0" opacity="1.00" stroke="#e9edf0" stroke-width="0.25"/>
<path d="M 112.45 323.48 C 122.37 321.69 133.27 325.40 139.69 333.25 C 146.01 339.63 147.74 349.28 146.90 357.93 C 145.52 364.93 141.91 371.79 136.03 376.01 C 124.90 384.91 107.05 384.14 96.97 373.95 C 93.08 369.30 89.61 364.02 88.26 358.03 C 87.05 349.06 89.67 339.49 95.76 332.71 C 99.98 327.72 106.05 324.59 112.45 323.48 M 100.73 338.84 C 97.85 344.73 95.37 351.34 97.13 357.96 C 98.76 363.17 101.48 368.99 107.05 370.88 C 111.98 371.05 114.16 366.01 116.94 362.86 C 120.63 362.95 124.33 362.84 128.03 362.73 C 128.43 359.17 128.63 355.58 128.33 352.01 C 128.68 350.16 126.98 349.67 125.63 349.26 C 125.47 346.86 125.75 344.03 123.76 342.25 C 121.97 340.32 119.11 340.13 116.71 340.82 C 116.72 340.52 116.75 339.91 116.76 339.61 C 119.09 336.24 114.86 332.97 111.93 332.10 C 107.36 332.02 102.76 334.70 100.73 338.84 Z" fill="#d9e1e4" opacity="1.00" stroke="#d9e1e4" stroke-width="0.25"/>
<path d="M 208.35 336.41 C 210.83 333.17 214.36 329.06 218.86 329.76 C 210.19 332.48 204.85 341.88 206.62 350.77 C 204.02 346.40 205.94 340.54 208.35 336.41 Z" fill="#3e4d53" opacity="1.00" stroke="#3e4d53" stroke-width="0.25"/>
<path d="M 100.73 338.84 C 102.76 334.70 107.36 332.02 111.93 332.10 C 114.86 332.97 119.09 336.24 116.76 339.61 C 116.75 339.91 116.72 340.52 116.71 340.82 C 113.85 342.67 112.99 345.91 113.04 349.15 C 112.17 349.55 111.30 349.96 110.43 350.37 C 110.22 354.42 110.24 358.49 110.44 362.54 C 112.60 362.69 114.77 362.80 116.94 362.86 C 114.16 366.01 111.98 371.05 107.05 370.88 C 101.48 368.99 98.76 363.17 97.13 357.96 C 95.37 351.34 97.85 344.73 100.73 338.84 Z" fill="#d1dbdd" opacity="1.00" stroke="#d1dbdd" stroke-width="0.25"/>
<path d="M 277.99 332.24 C 282.94 332.07 287.58 334.09 292.33 335.14 C 291.20 335.21 290.08 335.33 288.97 335.51 C 288.60 335.69 287.85 336.05 287.48 336.24 C 284.52 336.99 281.11 336.05 278.43 334.67 C 278.32 334.06 278.10 332.85 277.99 332.24 Z" fill="#bedcd2" opacity="1.00" stroke="#bedcd2" stroke-width="0.25"/>
<path d="M 288.97 335.51 C 290.08 335.33 291.20 335.21 292.33 335.14 C 299.19 336.32 306.10 337.42 313.08 337.61 C 314.26 337.65 315.26 338.15 316.07 339.09 C 312.58 340.81 308.72 339.68 305.06 339.40 C 299.17 338.53 293.12 338.27 287.48 336.24 C 287.85 336.05 288.60 335.69 288.97 335.51 Z" fill="#62b595" opacity="1.00" stroke="#62b595" stroke-width="0.25"/>
<path d="M 323.56 337.61 C 327.87 336.99 332.20 336.46 336.56 336.19 C 336.54 336.75 336.50 337.87 336.48 338.43 C 332.11 339.36 327.67 339.74 323.21 339.75 C 323.30 339.21 323.47 338.14 323.56 337.61 Z" fill="#67b796" opacity="1.00" stroke="#67b796" stroke-width="0.25"/>
<path d="M 113.04 349.15 C 112.99 345.91 113.85 342.67 116.71 340.82 C 119.11 340.13 121.97 340.32 123.76 342.25 C 125.75 344.03 125.47 346.86 125.63 349.26 C 126.98 349.67 128.68 350.16 128.33 352.01 C 128.63 355.58 128.43 359.17 128.03 362.73 C 124.33 362.84 120.63 362.95 116.94 362.86 C 114.77 362.80 112.60 362.69 110.44 362.54 C 110.24 358.49 110.22 354.42 110.43 350.37 C 111.30 349.96 112.17 349.55 113.04 349.15 M 115.67 344.69 C 115.36 346.29 115.36 347.94 115.25 349.57 C 118.00 349.58 120.74 349.59 123.49 349.59 C 123.23 347.66 123.97 345.21 122.25 343.81 C 120.37 341.86 117.09 342.56 115.67 344.69 M 117.75 355.73 C 118.22 357.35 117.81 360.10 120.02 360.47 C 119.98 358.27 121.88 355.58 120.09 353.72 C 118.69 352.92 117.29 354.26 117.75 355.73 Z" fill="#405b67" opacity="1.00" stroke="#405b67" stroke-width="0.25"/>
<path d="M 115.67 344.69 C 117.09 342.56 120.37 341.86 122.25 343.81 C 123.97 345.21 123.23 347.66 123.49 349.59 C 120.74 349.59 118.00 349.58 115.25 349.57 C 115.36 347.94 115.36 346.29 115.67 344.69 Z" fill="#d5e0e4" opacity="1.00" stroke="#d5e0e4" stroke-width="0.25"/>
<path d="M 117.75 355.73 C 117.29 354.26 118.69 352.92 120.09 353.72 C 121.88 355.58 119.98 358.27 120.02 360.47 C 117.81 360.10 118.22 357.35 117.75 355.73 Z" fill="#e4ecf1" opacity="1.00" stroke="#e4ecf1" stroke-width="0.25"/>
</svg>